<?xml version="1.0" standalone="no"?>
<!DOCTYPE svg PUBLIC "-//W3C//DTD SVG 20010904//EN"
 "http://www.w3.org/TR/2001/REC-SVG-20010904/DTD/svg10.dtd">
<svg version="1.0" xmlns="http://www.w3.org/2000/svg"
 width="215.000000pt" height="215.000000pt" viewBox="0 0 215.000000 215.000000"
 preserveAspectRatio="xMidYMid meet">

<g transform="translate(0.000000,215.000000) scale(0.100000,-0.100000)"
fill="#000000" stroke="none">
<path d="M588 1569 c-164 -160 -298 -295 -298 -300 0 -5 39 -60 88 -122 48
-61 96 -124 107 -138 11 -15 70 -90 130 -168 l110 -141 150 0 151 0 147 131
c81 72 147 135 147 139 0 6 -76 96 -126 149 -11 12 -31 -3 -131 -93 l-118
-106 -59 2 -60 3 -122 155 c-68 85 -123 160 -123 166 -1 7 87 98 195 203 l195
191 227 -1 227 -1 85 -115 c47 -63 133 -178 193 -255 l107 -140 0 178 0 178
-142 188 -143 188 -320 0 -320 0 -297 -291z"/>
<path d="M1094 1501 c-22 -4 -79 -48 -177 -135 l-146 -130 18 -22 c52 -66 123
-135 134 -131 6 3 63 51 125 106 110 98 114 101 161 101 39 0 52 -5 72 -27 49
-53 240 -304 237 -311 -2 -4 -91 -94 -199 -200 l-196 -192 -221 0 -221 0 -68
89 c-37 49 -126 166 -198 261 l-130 172 -3 -176 -2 -177 147 -194 148 -195
319 0 318 0 297 292 c163 161 297 296 299 300 2 4 -96 135 -218 292 l-222 286
-122 -1 c-66 -1 -135 -4 -152 -8z"/>
</g>
</svg>
